<svg xmlns="http://www.w3.org/2000/svg" width="19" height="19" viewBox="0 0 19 19"><g><g><path fill="#fff" d="M18.975 9.655v.002c.007.033.012.066.016.1l.003.018c.003.034.005.068.005.103l.001.02c0 .293-.107.56-.283.768l-6.728 7.916a1.184 1.184 0 0 1-1.02.412l-.079-.011-.027-.004a1.182 1.182 0 0 1-.561-.275l-.002.002L.406 9.603l.004-.005a1.18 1.18 0 0 1-.405-.869H0V1.19h.003C.003.534.535.003 1.19.003V0h7.517v.003h.003c.329 0 .626.134.841.35l9.092 8.696c.165.162.284.371.332.606zM3.17 1.586a1.583 1.583 0 1 0 0 3.166 1.583 1.583 0 0 0 0-3.166z"/></g></g></svg>