<svg xmlns="http://www.w3.org/2000/svg" width="15" height="23" viewBox="0 0 15 23"><defs><clipPath id="5xuaa"><path fill="#fff" d="M15 15.864c0 3.944-3.358 7.14-7.5 7.14-4.142 0-7.5-3.196-7.5-7.14C0 11.92 7.5-.005 7.5-.005S15 11.921 15 15.864z"/></clipPath></defs><g><g><path fill="#fff" d="M15 15.864c0 3.944-3.358 7.14-7.5 7.14-4.142 0-7.5-3.196-7.5-7.14C0 11.92 7.5-.005 7.5-.005S15 11.921 15 15.864z"/><path fill="none" stroke="#e3e9ea" stroke-linecap="round" stroke-linejoin="round" stroke-miterlimit="50" stroke-width="6" d="M15 15.864c0 3.944-3.358 7.14-7.5 7.14-4.142 0-7.5-3.196-7.5-7.14C0 11.92 7.5-.005 7.5-.005v0S15 11.921 15 15.864z" clip-path="url(&quot;#5xuaa&quot;)"/></g></g></svg>